<svg xmlns="http://www.w3.org/2000/svg" viewBox="0 0 24 24" width="24" height="24" color="#000000" fill="none">
    <defs />
    <path fill="currentColor" d="M18.746,16.25 L21,16.25 C21.414,16.25 21.75,16.586 21.75,17 C21.75,17.414 21.414,17.75 21,17.75 L18.746,17.75 C18.743,17.893 18.737,18.024 18.729,18.145 C18.708,18.462 18.661,18.762 18.541,19.052 C18.262,19.726 17.726,20.262 17.052,20.541 C16.762,20.661 16.462,20.708 16.145,20.729 C15.841,20.75 15.47,20.75 15.025,20.75 L14.975,20.75 C14.53,20.75 14.159,20.75 13.855,20.729 C13.538,20.708 13.238,20.661 12.948,20.541 C12.274,20.262 11.738,19.726 11.459,19.052 C11.339,18.762 11.292,18.462 11.271,18.145 C11.25,17.841 11.25,17.47 11.25,17.025 L11.25,16.975 C11.25,16.53 11.25,16.159 11.271,15.855 C11.292,15.538 11.339,15.238 11.459,14.948 C11.738,14.274 12.274,13.738 12.948,13.459 C13.238,13.339 13.538,13.292 13.855,13.271 C14.159,13.25 14.53,13.25 14.975,13.25 L15.025,13.25 C15.47,13.25 15.841,13.25 16.145,13.271 C16.462,13.292 16.762,13.339 17.052,13.459 C17.726,13.738 18.262,14.274 18.541,14.948 C18.661,15.238 18.708,15.538 18.729,15.855 C18.737,15.976 18.743,16.107 18.746,16.25 Z M8.975,3.25 L9.025,3.25 C9.47,3.25 9.841,3.25 10.145,3.271 C10.462,3.292 10.762,3.339 11.052,3.459 C11.726,3.738 12.262,4.274 12.541,4.948 C12.661,5.238 12.708,5.538 12.729,5.855 C12.75,6.159 12.75,6.53 12.75,6.975 L12.75,7.025 C12.75,7.47 12.75,7.841 12.729,8.145 C12.708,8.462 12.661,8.762 12.541,9.052 C12.262,9.726 11.726,10.262 11.052,10.541 C10.762,10.661 10.462,10.708 10.145,10.729 C9.841,10.75 9.47,10.75 9.025,10.75 L8.975,10.75 C8.53,10.75 8.159,10.75 7.855,10.729 C7.538,10.708 7.238,10.661 6.948,10.541 C6.274,10.262 5.738,9.726 5.459,9.052 C5.339,8.762 5.292,8.462 5.271,8.145 C5.263,8.024 5.258,7.893 5.255,7.75 L3,7.75 C2.586,7.75 2.25,7.414 2.25,7 C2.25,6.586 2.586,6.25 3,6.25 L5.255,6.25 C5.258,6.107 5.263,5.976 5.271,5.855 C5.292,5.538 5.339,5.238 5.459,4.948 C5.738,4.274 6.274,3.738 6.948,3.459 C7.238,3.339 7.538,3.292 7.855,3.271 C8.159,3.25 8.53,3.25 8.975,3.25 Z M17.25,17 C17.25,16.524 17.25,16.204 17.233,15.957 C17.216,15.716 17.187,15.599 17.155,15.522 C17.028,15.215 16.785,14.972 16.478,14.845 C16.401,14.813 16.284,14.784 16.043,14.767 C15.796,14.75 15.476,14.75 15,14.75 C14.524,14.75 14.204,14.75 13.957,14.767 C13.716,14.784 13.599,14.813 13.522,14.845 C13.215,14.972 12.972,15.215 12.845,15.522 C12.813,15.599 12.784,15.716 12.767,15.957 C12.75,16.204 12.75,16.524 12.75,17 C12.75,17.476 12.75,17.796 12.767,18.043 C12.784,18.284 12.813,18.401 12.845,18.478 C12.972,18.785 13.215,19.028 13.522,19.155 C13.599,19.187 13.716,19.216 13.957,19.233 C14.204,19.25 14.524,19.25 15,19.25 C15.476,19.25 15.796,19.25 16.043,19.233 C16.284,19.216 16.401,19.187 16.478,19.155 C16.785,19.028 17.028,18.785 17.155,18.478 C17.187,18.401 17.216,18.284 17.233,18.043 C17.25,17.796 17.25,17.476 17.25,17 Z M7.957,4.767 C7.716,4.784 7.599,4.813 7.522,4.845 C7.215,4.972 6.972,5.215 6.845,5.522 C6.813,5.599 6.784,5.716 6.767,5.957 C6.75,6.204 6.75,6.524 6.75,7 C6.75,7.476 6.75,7.796 6.767,8.043 C6.784,8.284 6.813,8.401 6.845,8.478 C6.972,8.785 7.215,9.028 7.522,9.155 C7.599,9.187 7.716,9.216 7.957,9.233 C8.204,9.25 8.524,9.25 9,9.25 C9.476,9.25 9.796,9.25 10.043,9.233 C10.284,9.216 10.401,9.187 10.478,9.155 C10.785,9.028 11.028,8.785 11.155,8.478 C11.187,8.401 11.216,8.284 11.233,8.043 C11.25,7.796 11.25,7.476 11.25,7 C11.25,6.524 11.25,6.204 11.233,5.957 C11.216,5.716 11.187,5.599 11.155,5.522 C11.028,5.215 10.785,4.972 10.478,4.845 C10.401,4.813 10.284,4.784 10.043,4.767 C9.796,4.75 9.476,4.75 9,4.75 C8.524,4.75 8.204,4.75 7.957,4.767 Z M3,16.25 L9,16.25 C9.414,16.25 9.75,16.586 9.75,17 C9.75,17.414 9.414,17.75 9,17.75 L3,17.75 C2.586,17.75 2.25,17.414 2.25,17 C2.25,16.586 2.586,16.25 3,16.25 Z M15,6.25 L21,6.25 C21.414,6.25 21.75,6.586 21.75,7 C21.75,7.414 21.414,7.75 21,7.75 L15,7.75 C14.586,7.75 14.25,7.414 14.25,7 C14.25,6.586 14.586,6.25 15,6.25 Z" />
</svg>